<?xml version="1.0" encoding="utf-8"?>
<!-- Generator: Adobe Illustrator 25.2.0, SVG Export Plug-In . SVG Version: 6.00 Build 0)  -->
<svg version="1.1" xmlns="http://www.w3.org/2000/svg" xmlns:xlink="http://www.w3.org/1999/xlink" x="0px" y="0px"
	 viewBox="0 0 496.03 104" style="enable-background:new 0 0 496.03 104;" xml:space="preserve">
<style type="text/css">
	.st0{display:none;}
	.st1{display:inline;}
	.st2{fill:none;stroke:#00FF00;stroke-miterlimit:10;}
	.st3{display:inline;fill:none;stroke:#00FF00;stroke-miterlimit:10;}
	.st4{fill:none;stroke:#00FF00;}
	.st5{fill:url(#SVGID_1_);}
	.st6{opacity:0.45;fill:#FFFFFF;}
	.st7{fill:#FFFFFF;}
	.st8{fill:url(#SVGID_2_);}
	.st9{fill:#1B4889;}
</style>
<g id="Layer_3" class="st0">
</g>
<g id="Layer_2" class="st0">
	<line class="st3" x1="140.45" y1="-98" x2="140.45" y2="2"/>
	<line class="st3" x1="138.08" y1="102" x2="138.08" y2="202"/>
	<line class="st3" x1="2" y1="54.24" x2="-98" y2="54.24"/>
	<line class="st3" x1="594.03" y1="2" x2="494.03" y2="2"/>
</g>
<g id="Layer_1">
	<g>
		<path class="st9" d="M42.09,47.44l15.77,20.19h16.62v14.18H53.29c-16.44,0-29.81-13.37-29.81-29.81
			c0-16.44,13.37-29.81,29.81-29.81l33.63,0v0h0L71.15,2H52C24.43,2,2,24.43,2,52c0,27.57,22.43,50,50,50h43.53l-0.02-54.56H42.09z
			 M27.16,71.83l-0.01-0.02c0.01,0.01,0.02,0.02,0.02,0.03L27.16,71.83z M39.68,81.86l-0.03-0.02c0.02,0.01,0.03,0.02,0.05,0.02
			L39.68,81.86z"/>
		<g>
			<polygon class="st9" points="472.56,2 450.08,48.99 426.36,2.14 426.29,2 404.34,2 438.13,67.65 438.13,102 459.38,102 
				459.8,67.66 494.03,2 			"/>
			<polygon class="st9" points="344.74,78.72 319.17,2.17 319.12,2 296.23,2 333,101.84 333.06,102 354.84,102 392.41,2.34 
				392.53,2 370.66,2 			"/>
			<path class="st9" d="M285.9,61.44l-0.06-0.16h-45.76L281.35,2H255.4l-41.87,61.72l-0.1,0.15L227,81.25h38.8V102h20.4V62.23
				c0-0.14-0.05-0.25-0.12-0.39C286.03,61.75,285.97,61.62,285.9,61.44z"/>
			<path class="st9" d="M200.48,34.47C200.48,16.26,187.2,2,170.25,2h-50.63v100h20.82V66.95h18.93l22.41,34.94l0.07,0.11h24.81
				l-26.13-38.51C193.03,58.28,200.48,47.46,200.48,34.47z M180.08,34.52c0,7.33-5.42,13.3-12.07,13.3h-27.56V21.22h26.57
				C173.33,21.22,180.08,24.72,180.08,34.52z"/>
		</g>
	</g>
</g>
</svg>
